<svg width="511" height="135" xmlns="http://www.w3.org/2000/svg"><path d="M126.7 134.9H10c-5.2 0-9.3-4.2-9.3-9.3V9.3C.7 4.1 4.9 0 10 0h116.7c5.2 0 9.3 4.2 9.3 9.3v116.3c0 5.1-4.1 9.3-9.3 9.3zM44.8 34.1s-18.6.7-23.6 18.7c-.7 2.6-1 5.3-1 8v44c0 5.9 4.8 10.7 10.7 10.7h42.6s-12.7-6.2-13.7-20.8c-.7-9.2-.5-31-.3-45.7.1-8.2-6.5-14.9-14.7-14.9zm47.9 67.5s18.6-.7 23.6-18.7c.7-2.6 1-5.3 1-8v-44c0-5.9-4.8-10.7-10.7-10.7H64S76.7 26.4 77.7 41c.7 9.2.5 31 .3 45.7-.1 8.2 6.5 14.9 14.7 14.9zM287 81.807V18.7c0-3.3 2.7-6.1 6.1-6.1h15.8c3.3 0 6.1 2.7 6.1 6.1V113c0 3.3-2.7 6-6.1 6h-15.8c-3.3 0-6.1-2.7-6.1-6.1v-7.416c-3.201 4-7.948 6.88-12.6 8.916-6.7 2.9-13.9 4.2-21.1 4.2h-4.5c-8.68 0-16.127-5.262-19.327-12.771A21.518 21.518 0 0 1 227.5 96.8V54s2.5-22.8-12-22.6c-14.4.2-18.9 18.299-18.9 18.3v62.6c0 3.4-2.7 6.1-6.1 6.1h-15.8c-3.3 0-6.1-2.7-6.1-6.1V18.1c0-3.3 2.7-6.1 6.1-6.1h15.8c3.3 0 6.1 2.7 6.1 6.1v7.47c3.202-4.132 8.05-7.092 12.8-9.17 6.7-2.9 13.9-4.2 21.1-4.2h4.5c8.68 0 16.127 5.262 19.327 12.771A21.518 21.518 0 0 1 256.3 34v42.8s-2.5 22.8 12 22.6c12.688-.176 17.69-14.248 18.7-17.593zm167.3.16V19.2c0-3.3 2.7-6.1 6.1-6.1h15.8c3.3 0 6.1 2.7 6.1 6.1v94.2c-.1 3.4-2.8 6.1-6.1 6.1h-15.8c-3.3 0-6.1-2.7-6.1-6.1v-7.542c-3.202 4.065-7.999 6.985-12.7 9.042-6.7 2.9-13.9 4.2-21.1 4.2H416c-8.68 0-16.127-5.262-19.327-12.771A21.518 21.518 0 0 1 394.7 97.3V54.5s2.5-22.8-12-22.6c-13.181.183-18.067 15.364-18.8 17.933V112.8c-.1 3.4-2.8 6.1-6.1 6.1H342c-3.3 0-6.1-2.7-6.1-6.1V18.6c0-3.3 2.7-6.1 6.1-6.1h15.8c3.3 0 6.1 2.7 6.1 6.1v7.342c3.202-4.065 7.999-6.985 12.7-9.042 6.7-2.9 13.9-4.2 21.1-4.2h4.5c8.68 0 16.127 5.262 19.327 12.771A21.518 21.518 0 0 1 423.5 34.5v42.8s-2.4 22.8 12 22.6c13.181-.183 18.067-15.364 18.8-17.933zM492.2 25.6v-9.5h-3.4v-1.9h9.1v1.9h-3.4v9.5h-2.3zm7.2 0V14.1h3.5l2.1 7.8 2.1-7.8h3.5v11.5h-2.1v-9l-2.3 9H504l-2.3-9v9h-2.3z" fill="#FFC26D" fill-rule="nonzero"/></svg>