<svg width="auto" height="auto" viewBox="0 0 44 42" fill="none" xmlns="http://www.w3.org/2000/svg">
<path d="M40.5859 16.0402C40.6333 15.5686 40.6557 15.1449 40.6557 14.7321C40.6557 6.98087 34.3495 0.674561 26.5983 0.674561C22.5492 0.674561 18.7367 2.39963 16.0644 5.42413C14.8582 5.04621 13.6227 4.85491 12.3855 4.85491C5.55604 4.85491 0 10.411 0 17.2402C0 24.0695 5.55604 29.6255 12.3853 29.6255H20.1942V28.2643H12.3853C6.3066 28.2643 1.3612 23.3189 1.3612 17.2402C1.3612 11.1615 6.3066 6.21611 12.3853 6.21611C13.6208 6.21611 14.856 6.43156 16.0568 6.85631L16.5052 7.01497L16.8083 6.64833C19.2316 3.71706 22.7998 2.03591 26.5983 2.03591C33.5991 2.03591 39.2945 7.73143 39.2945 14.7323C39.2945 15.2129 39.2597 15.7163 39.1849 16.3164L39.1279 16.7735L39.531 16.9962C41.448 18.0556 42.6388 20.0712 42.6388 22.2566C42.6388 25.5693 39.9438 28.2645 36.6309 28.2645H24.3759V29.6257H36.6309C40.6942 29.6257 44 26.32 44 22.2568C43.9999 19.7301 42.7029 17.3886 40.5859 16.0402Z" fill="#99D8B7"/>
<path d="M26.7087 20.6336L22.2851 16.21L17.8615 20.6336L18.824 21.5961L21.6045 18.8156V32.2655H22.9657V18.8156L25.7462 21.5961L26.7087 20.6336Z" fill="#99D8B7"/>
<path d="M22.9657 32.9624H21.6045V36.4469H22.9657V32.9624Z" fill="#99D8B7"/>
<path d="M22.9657 37.1439H21.6045V39.2346H22.9657V37.1439Z" fill="#99D8B7"/>
<path d="M22.9657 39.9316H21.6045V41.3255H22.9657V39.9316Z" fill="#99D8B7"/>
</svg>
